<svg xmlns="http://www.w3.org/2000/svg" viewBox="0 0 1600 1000" preserveAspectRatio="xMidYMid slice">
  <g fill="#FFFFFF">
    <circle cx="120" cy="120" r="2.4" opacity=".55"/>
    <circle cx="260" cy="80" r="1.6" opacity=".4"/>
    <circle cx="360" cy="180" r="2" opacity=".5"/>
    <circle cx="500" cy="110" r="1.4" opacity=".35"/>
    <circle cx="620" cy="200" r="2.2" opacity=".5"/>
    <circle cx="760" cy="90" r="1.6" opacity=".45"/>
    <circle cx="880" cy="170" r="2" opacity=".4"/>
    <circle cx="980" cy="80" r="1.4" opacity=".3"/>
    <circle cx="1080" cy="150" r="2.2" opacity=".5"/>
    <circle cx="1180" cy="300" r="1.6" opacity=".4"/>
    <circle cx="1360" cy="120" r="2" opacity=".5"/>
    <circle cx="1480" cy="220" r="1.4" opacity=".35"/>
    <circle cx="1540" cy="90" r="2.2" opacity=".5"/>
    <circle cx="180" cy="320" r="1.4" opacity=".3"/>
    <circle cx="440" cy="300" r="1.6" opacity=".4"/>
    <circle cx="700" cy="330" r="1.4" opacity=".3"/>
    <circle cx="940" cy="320" r="1.6" opacity=".4"/>
    <circle cx="1280" cy="260" r="1.4" opacity=".3"/>
  </g>
  <circle cx="1250" cy="230" r="90" fill="#E60012" opacity=".10"/>
  <circle cx="1250" cy="230" r="62" fill="#E60012" opacity=".22"/>
  <path d="M0 1000 L0 660 L240 500 L470 660 L720 470 L970 660 L1210 500 L1450 660 L1600 560 L1600 1000 Z" fill="#6A6A6A" opacity=".16"/>
  <path d="M0 1000 L0 780 L300 620 L560 780 L820 580 L1080 780 L1340 620 L1600 780 L1600 1000 Z" fill="#3A3A3A" opacity=".30"/>
  <path d="M0 1000 L0 900 L380 770 L720 910 L1040 750 L1380 910 L1600 820 L1600 1000 Z" fill="#111111" opacity=".42"/>
</svg>
